<?xml version="1.0" encoding="UTF-8" standalone="no"?>
<!-- Created with Inkscape (http://www.inkscape.org/) -->

<svg
   xmlns:dc="http://purl.org/dc/elements/1.1/"
   xmlns:cc="http://creativecommons.org/ns#"
   xmlns:rdf="http://www.w3.org/1999/02/22-rdf-syntax-ns#"
   xmlns:svg="http://www.w3.org/2000/svg"
   xmlns="http://www.w3.org/2000/svg"
   xmlns:sodipodi="http://sodipodi.sourceforge.net/DTD/sodipodi-0.dtd"
   xmlns:inkscape="http://www.inkscape.org/namespaces/inkscape"
   width="467.08524"
   height="368.50784"
   id="svg3933"
   version="1.1"
   inkscape:version="0.48.0 r9654"
   sodipodi:docname="otreef.svg">
  <defs
     id="defs3935" />
  <sodipodi:namedview
     id="base"
     pagecolor="#ffffff"
     bordercolor="#666666"
     borderopacity="1.0"
     inkscape:pageopacity="0.0"
     inkscape:pageshadow="2"
     inkscape:zoom="0.98994949"
     inkscape:cx="267.51545"
     inkscape:cy="195.87026"
     inkscape:document-units="px"
     inkscape:current-layer="layer1"
     showgrid="true"
     showguides="false"
     fit-margin-top="0"
     fit-margin-left="0"
     fit-margin-right="0"
     fit-margin-bottom="0"
     inkscape:window-width="1366"
     inkscape:window-height="742"
     inkscape:window-x="0"
     inkscape:window-y="0"
     inkscape:window-maximized="1">
    <inkscape:grid
       type="xygrid"
       id="grid3979"
       empspacing="5"
       visible="true"
       enabled="true"
       snapvisiblegridlinesonly="true" />
  </sodipodi:namedview>
  <metadata
     id="metadata3938">
    <rdf:RDF>
      <cc:Work
         rdf:about="">
        <dc:format>image/svg+xml</dc:format>
        <dc:type
           rdf:resource="http://purl.org/dc/dcmitype/StillImage" />
        <dc:title></dc:title>
      </cc:Work>
    </rdf:RDF>
  </metadata>
  <g
     inkscape:label="Layer 1"
     inkscape:groupmode="layer"
     id="layer1"
     transform="translate(10.835232,-175.10437)">
    <path
       style="fill:none;stroke:#000000;stroke-width:7.19999981;stroke-linecap:round;stroke-linejoin:round;stroke-miterlimit:4;stroke-opacity:1;stroke-dasharray:none"
       d="m -55,221.56406 c 7.820278,-25.02489 100.953898,-99.50384 155,-95 44.02677,3.66889 101.04737,5.34714 140,0 67.21721,-9.22711 95,-20 95,-20"
       id="path3819"
       inkscape:connector-curvature="0"
       transform="translate(69.59334,176.18625)"
       sodipodi:nodetypes="cssc" />
    <path
       transform="matrix(0.85714286,0,0,0.85714286,391.42857,195.66442)"
       d="m -60,121.56406 c 0,19.32996 -15.670034,35 -35,35 -19.32997,0 -35,-15.67004 -35,-35 0,-19.32997 15.67003,-35.000004 35,-35.000004 19.329966,0 35,15.670034 35,35.000004 z"
       sodipodi:ry="35"
       sodipodi:rx="35"
       sodipodi:cy="121.56406"
       sodipodi:cx="-95"
       id="path3772"
       style="fill:#ffffff;fill-opacity:1;stroke:#000000;stroke-width:1.5;stroke-miterlimit:4;stroke-opacity:1;stroke-dasharray:none"
       sodipodi:type="arc" />
    <path
       sodipodi:type="arc"
       style="fill:#ffffff;fill-opacity:1;stroke:#000000;stroke-width:1.5;stroke-miterlimit:4;stroke-opacity:1;stroke-dasharray:none"
       id="path3002"
       sodipodi:cx="-95"
       sodipodi:cy="121.56406"
       sodipodi:rx="35"
       sodipodi:ry="35"
       d="m -60,121.56406 c 0,19.32996 -15.670034,35 -35,35 -19.32997,0 -35,-15.67004 -35,-35 0,-19.32997 15.67003,-35.000004 35,-35.000004 19.329966,0 35,15.670034 35,35.000004 z"
       transform="matrix(0.85714286,0,0,0.85714286,248.92856,200.66442)" />
    <text
       xml:space="preserve"
       style="font-size:40px;font-style:normal;font-variant:normal;font-weight:normal;font-stretch:normal;line-height:125%;letter-spacing:0px;word-spacing:0px;fill:#000000;fill-opacity:1;stroke:none;font-family:Symbol;-inkscape-font-specification:Symbol"
       x="156.29999"
       y="315.28217"
       id="text3955"
       sodipodi:linespacing="125%"><tspan
         sodipodi:role="line"
         id="tspan3957"
         x="156.29999"
         y="315.28217"
         style="font-style:normal;font-variant:normal;font-weight:normal;font-stretch:normal;font-family:Ubuntu;-inkscape-font-specification:Ubuntu">e</tspan></text>
    <path
       sodipodi:type="arc"
       style="fill:#ffffff;fill-opacity:1;stroke:#000000;stroke-width:1.5;stroke-miterlimit:4;stroke-opacity:1;stroke-dasharray:none"
       id="path3774"
       sodipodi:cx="-95"
       sodipodi:cy="121.56406"
       sodipodi:rx="35"
       sodipodi:ry="35"
       d="m -60,121.56406 c 0,19.32996 -15.670034,35 -35,35 -19.32997,0 -35,-15.67004 -35,-35 0,-19.32997 15.67003,-35.000004 35,-35.000004 19.329966,0 35,15.670034 35,35.000004 z"
       transform="matrix(0.85714286,0,0,0.85714286,486.42858,177.66051)" />
    <text
       xml:space="preserve"
       style="font-size:40px;font-style:normal;font-variant:normal;font-weight:normal;font-stretch:normal;line-height:125%;letter-spacing:0px;word-spacing:0px;fill:#000000;fill-opacity:1;stroke:none;font-family:Symbol;-inkscape-font-specification:Symbol"
       x="300.10001"
       y="310.30219"
       id="text3959"
       sodipodi:linespacing="125%"><tspan
         sodipodi:role="line"
         id="tspan3961"
         x="300.10001"
         y="310.30219"
         style="font-style:normal;font-variant:normal;font-weight:normal;font-stretch:normal;font-family:Ubuntu;-inkscape-font-specification:Ubuntu">a</tspan></text>
    <text
       xml:space="preserve"
       style="font-size:40px;font-style:normal;font-variant:normal;font-weight:normal;font-stretch:normal;line-height:125%;letter-spacing:0px;word-spacing:0px;fill:#000000;fill-opacity:1;stroke:none;font-family:Symbol;-inkscape-font-specification:Symbol"
       x="393.72"
       y="297.13828"
       id="text3963"
       sodipodi:linespacing="125%"><tspan
         sodipodi:role="line"
         id="tspan3965"
         x="393.72"
         y="297.13828"
         style="font-style:normal;font-variant:normal;font-weight:normal;font-stretch:normal;font-family:Ubuntu;-inkscape-font-specification:Ubuntu">d</tspan></text>
    <path
       style="fill:none;stroke:#000000;stroke-width:7.19999981;stroke-linecap:round;stroke-linejoin:round;stroke-miterlimit:4;stroke-opacity:1;stroke-dasharray:none"
       d="m 60,226.56406 -120,0 c 51.5570619,31.73243 3.048032,123.50451 155,95 85,-10 125,5 175,-30"
       id="path3823"
       inkscape:connector-curvature="0"
       transform="translate(69.59334,176.18625)"
       sodipodi:nodetypes="cccc" />
    <path
       transform="matrix(0.85714286,0,0,0.85714286,421.42857,360.66442)"
       d="m -60,121.56406 c 0,19.32996 -15.670034,35 -35,35 -19.32997,0 -35,-15.67004 -35,-35 0,-19.32997 15.67003,-35.000004 35,-35.000004 19.329966,0 35,15.670034 35,35.000004 z"
       sodipodi:ry="35"
       sodipodi:rx="35"
       sodipodi:cy="121.56406"
       sodipodi:cx="-95"
       id="path3776"
       style="fill:#ffffff;fill-opacity:1;stroke:#000000;stroke-width:1.5;stroke-miterlimit:4;stroke-opacity:1;stroke-dasharray:none"
       sodipodi:type="arc" />
    <text
       xml:space="preserve"
       style="font-size:40px;font-style:normal;font-variant:normal;font-weight:normal;font-stretch:normal;line-height:125%;letter-spacing:0px;word-spacing:0px;fill:#000000;fill-opacity:1;stroke:none;font-family:Symbol;-inkscape-font-specification:Symbol"
       x="327.56"
       y="480.14218"
       id="text3967"
       sodipodi:linespacing="125%"><tspan
         sodipodi:role="line"
         id="tspan3969"
         x="327.56"
         y="480.14218"
         style="font-style:normal;font-variant:normal;font-weight:normal;font-stretch:normal;font-family:Ubuntu;-inkscape-font-specification:Ubuntu">b</tspan></text>
    <path
       transform="matrix(0.85714286,0,0,0.85714286,253.92858,393.16443)"
       d="m -60,121.56406 c 0,19.32996 -15.670034,35 -35,35 -19.32997,0 -35,-15.67004 -35,-35 0,-19.32997 15.67003,-35.000004 35,-35.000004 19.329966,0 35,15.670034 35,35.000004 z"
       sodipodi:ry="35"
       sodipodi:rx="35"
       sodipodi:cy="121.56406"
       sodipodi:cx="-95"
       id="path3780"
       style="fill:#ffffff;fill-opacity:1;stroke:#000000;stroke-width:1.5;stroke-miterlimit:4;stroke-opacity:1;stroke-dasharray:none"
       sodipodi:type="arc" />
    <text
       xml:space="preserve"
       style="font-size:40px;font-style:normal;font-variant:normal;font-weight:normal;font-stretch:normal;line-height:125%;letter-spacing:0px;word-spacing:0px;fill:#000000;fill-opacity:1;stroke:none;font-family:Symbol;-inkscape-font-specification:Symbol"
       x="162.92001"
       y="512.8822"
       id="text3971"
       sodipodi:linespacing="125%"><tspan
         sodipodi:role="line"
         id="tspan3973"
         x="162.92001"
         y="512.8822"
         style="font-style:normal;font-variant:normal;font-weight:normal;font-stretch:normal;font-family:Ubuntu;-inkscape-font-specification:Ubuntu">f</tspan></text>
    <path
       sodipodi:type="arc"
       style="fill:#ffffff;fill-opacity:1;stroke:#000000;stroke-width:1.5;stroke-miterlimit:4;stroke-opacity:1;stroke-dasharray:none"
       id="path3778"
       sodipodi:cx="-95"
       sodipodi:cy="121.56406"
       sodipodi:rx="35"
       sodipodi:ry="35"
       d="m -60,121.56406 c 0,19.32996 -15.670034,35 -35,35 -19.32997,0 -35,-15.67004 -35,-35 0,-19.32997 15.67003,-35.000004 35,-35.000004 19.329966,0 35,15.670034 35,35.000004 z"
       transform="matrix(0.85714286,0,0,0.85714286,227.30877,300.66442)" />
    <text
       xml:space="preserve"
       style="font-size:40px;font-style:normal;font-variant:normal;font-weight:normal;font-stretch:normal;line-height:125%;letter-spacing:0px;word-spacing:0px;fill:#000000;fill-opacity:1;stroke:none;font-family:Symbol;-inkscape-font-specification:Symbol"
       x="135.88019"
       y="415.28217"
       id="text3975"
       sodipodi:linespacing="125%"><tspan
         sodipodi:role="line"
         id="tspan3977"
         x="135.88019"
         y="415.28217"
         style="font-style:normal;font-variant:normal;font-weight:normal;font-stretch:normal;font-family:Ubuntu;-inkscape-font-specification:Ubuntu">c</tspan></text>
    <path
       transform="matrix(0.57142857,0,0,0.57142857,63.879054,333.28513)"
       d="m -60,121.56406 c 0,19.32996 -15.670034,35 -35,35 -19.32997,0 -35,-15.67004 -35,-35 0,-19.32997 15.67003,-35.000004 35,-35.000004 19.329966,0 35,15.670034 35,35.000004 z"
       sodipodi:ry="35"
       sodipodi:rx="35"
       sodipodi:cy="121.56406"
       sodipodi:cx="-95"
       id="path3801"
       style="fill:#ffffff;fill-opacity:1;stroke:#000000;stroke-width:1.5;stroke-miterlimit:4;stroke-opacity:1;stroke-dasharray:none"
       sodipodi:type="arc" />
  </g>
</svg>
