<?xml version="1.0" standalone="no"?>
<!DOCTYPE svg PUBLIC "-//W3C//DTD SVG 1.1//EN"
"http://www.w3.org/Graphics/SVG/1.1/DTD/svg11.dtd">
<svg width="140" height="185" version="1.1" xmlns="http://www.w3.org/2000/svg">

<rect x="0" y="0" width="140" height="185" style="fill:rgb(180,180,180);" />
<rect x="85" y="95" width="50" height="25" style="fill:rgb(255,255,255);stroke-width:1.0;stroke:rgb(120,120,120);" />
<rect x="50" y="145" width="45" height="40" style="fill:rgb(255,255,255);stroke-width:1.0;stroke:rgb(120,120,120);" />
<rect x="0" y="145" width="50" height="20" style="fill:rgb(255,255,255);stroke-width:1.0;stroke:rgb(120,120,120);" />
<rect x="0" y="95" width="85" height="50" style="fill:rgb(255,255,255);stroke-width:1.0;stroke:rgb(120,120,120);" />
<rect x="0" y="40" width="100" height="55" style="fill:rgb(255,255,255);stroke-width:1.0;stroke:rgb(120,120,120);" />
<rect x="0" y="0" width="140" height="40" style="fill:rgb(255,255,255);stroke-width:1.0;stroke:rgb(120,120,120);" />
<line x1="25" y1="155" x2="72" y2="165" style="stroke:rgb(255,20,20);stroke-width:2.0;stroke-opacity:0.9;" />
<line x1="42" y1="120" x2="110" y2="107" style="stroke:rgb(255,20,20);stroke-width:2.0;stroke-opacity:0.9;" />
<line x1="42" y1="120" x2="25" y2="155" style="stroke:rgb(20,20,255);stroke-width:2.0;stroke-opacity:0.9;" />
<line x1="50" y1="67" x2="42" y2="120" style="stroke:rgb(20,20,255);stroke-width:2.0;stroke-opacity:0.9;" />
<line x1="70" y1="20" x2="50" y2="67" style="stroke:rgb(20,20,255);stroke-width:2.0;stroke-opacity:0.9;" />
<circle cx="110" cy="107" r="5" style="fill:rgb(30,30,30);" />
<circle cx="72" cy="165" r="5" style="fill:rgb(30,30,30);" />
<circle cx="25" cy="155" r="5" style="fill:rgb(30,30,30);" />
<circle cx="42" cy="120" r="5" style="fill:rgb(30,30,30);" />
<circle cx="50" cy="67" r="5" style="fill:rgb(30,30,30);" />
<circle cx="70" cy="20" r="5" style="fill:rgb(30,30,30);" />
</svg>