<?xml version="1.0" standalone="no"?>
<!DOCTYPE svg PUBLIC "-//W3C//DTD SVG 1.1//EN"
"http://www.w3.org/Graphics/SVG/1.1/DTD/svg11.dtd">
<svg width="275" height="140" version="1.1" xmlns="http://www.w3.org/2000/svg">

<rect x="0" y="0" width="275" height="140" style="fill:rgb(180,180,180);" />
<rect x="225" y="0" width="50" height="25" style="fill:rgb(255,255,255);stroke-width:1.0;stroke:rgb(120,120,120);" />
<rect x="140" y="50" width="45" height="40" style="fill:rgb(255,255,255);stroke-width:1.0;stroke:rgb(120,120,120);" />
<rect x="140" y="0" width="85" height="50" style="fill:rgb(255,255,255);stroke-width:1.0;stroke:rgb(120,120,120);" />
<rect x="55" y="40" width="20" height="50" style="fill:rgb(255,255,255);stroke-width:1.0;stroke:rgb(120,120,120);" />
<rect x="0" y="40" width="55" height="100" style="fill:rgb(255,255,255);stroke-width:1.0;stroke:rgb(120,120,120);" />
<rect x="0" y="0" width="140" height="40" style="fill:rgb(255,255,255);stroke-width:1.0;stroke:rgb(120,120,120);" />
<line x1="182" y1="25" x2="250" y2="12" style="stroke:rgb(255,20,20);stroke-width:2.0;stroke-opacity:0.9;" />
<line x1="182" y1="25" x2="162" y2="70" style="stroke:rgb(20,20,255);stroke-width:2.0;stroke-opacity:0.9;" />
<line x1="27" y1="90" x2="65" y2="65" style="stroke:rgb(255,20,20);stroke-width:2.0;stroke-opacity:0.9;" />
<line x1="70" y1="20" x2="182" y2="25" style="stroke:rgb(255,20,20);stroke-width:2.0;stroke-opacity:0.9;" />
<line x1="70" y1="20" x2="27" y2="90" style="stroke:rgb(20,20,255);stroke-width:2.0;stroke-opacity:0.9;" />
<circle cx="250" cy="12" r="5" style="fill:rgb(30,30,30);" />
<circle cx="162" cy="70" r="5" style="fill:rgb(30,30,30);" />
<circle cx="182" cy="25" r="5" style="fill:rgb(30,30,30);" />
<circle cx="65" cy="65" r="5" style="fill:rgb(30,30,30);" />
<circle cx="27" cy="90" r="5" style="fill:rgb(30,30,30);" />
<circle cx="70" cy="20" r="5" style="fill:rgb(30,30,30);" />
</svg>